<svg width="124" height="65" viewBox="0 0 124 65" fill="none" xmlns="http://www.w3.org/2000/svg">
<path d="M45.3636 55.2557C44.0398 55.2557 42.8949 54.9744 41.929 54.4119C40.9688 53.8437 40.2273 53.054 39.7045 52.0426C39.1818 51.0256 38.9205 49.8466 38.9205 48.5057C38.9205 47.1534 39.1818 45.9716 39.7045 44.9602C40.2273 43.9432 40.9688 43.1534 41.929 42.5909C42.8949 42.0227 44.0398 41.7386 45.3636 41.7386C46.6875 41.7386 47.8295 42.0227 48.7898 42.5909C49.7557 43.1534 50.5 43.9432 51.0227 44.9602C51.5455 45.9716 51.8068 47.1534 51.8068 48.5057C51.8068 49.8466 51.5455 51.0256 51.0227 52.0426C50.5 53.054 49.7557 53.8437 48.7898 54.4119C47.8295 54.9744 46.6875 55.2557 45.3636 55.2557ZM45.3807 52.4432C45.983 52.4432 46.4858 52.2727 46.8892 51.9318C47.2926 51.5852 47.5966 51.1136 47.8011 50.517C48.0114 49.9205 48.1165 49.2415 48.1165 48.4801C48.1165 47.7188 48.0114 47.0398 47.8011 46.4432C47.5966 45.8466 47.2926 45.375 46.8892 45.0284C46.4858 44.6818 45.983 44.5085 45.3807 44.5085C44.7727 44.5085 44.2614 44.6818 43.8466 45.0284C43.4375 45.375 43.1278 45.8466 42.9176 46.4432C42.7131 47.0398 42.6108 47.7188 42.6108 48.4801C42.6108 49.2415 42.7131 49.9205 42.9176 50.517C43.1278 51.1136 43.4375 51.5852 43.8466 51.9318C44.2614 52.2727 44.7727 52.4432 45.3807 52.4432ZM58.9915 55.2131C57.9972 55.2131 57.0966 54.9574 56.2898 54.446C55.4886 53.929 54.8523 53.1705 54.3807 52.1705C53.9148 51.1648 53.6818 49.9318 53.6818 48.4716C53.6818 46.9716 53.9233 45.7244 54.4062 44.7301C54.8892 43.7301 55.5313 42.983 56.3324 42.4886C57.1392 41.9886 58.0227 41.7386 58.983 41.7386C59.7159 41.7386 60.3267 41.8636 60.8153 42.1136C61.3097 42.358 61.7074 42.6648 62.0085 43.0341C62.3153 43.3977 62.5483 43.7557 62.7074 44.108H62.8182V37.5455H66.4403V55H62.8608V52.9034H62.7074C62.5369 53.267 62.2955 53.6278 61.983 53.9858C61.6761 54.3381 61.2756 54.6307 60.7812 54.8636C60.2926 55.0966 59.696 55.2131 58.9915 55.2131ZM60.142 52.3239C60.7273 52.3239 61.2216 52.1648 61.625 51.8466C62.0341 51.5227 62.3466 51.071 62.5625 50.4915C62.7841 49.9119 62.8949 49.233 62.8949 48.4545C62.8949 47.6761 62.7869 47 62.571 46.4261C62.3551 45.8523 62.0426 45.4091 61.6335 45.0966C61.2244 44.7841 60.7273 44.6278 60.142 44.6278C59.5455 44.6278 59.0426 44.7898 58.6335 45.1136C58.2244 45.4375 57.9148 45.8864 57.7045 46.4602C57.4943 47.0341 57.3892 47.6989 57.3892 48.4545C57.3892 49.2159 57.4943 49.8892 57.7045 50.4744C57.9205 51.054 58.2301 51.5085 58.6335 51.8381C59.0426 52.1619 59.5455 52.3239 60.142 52.3239ZM75.3913 55.2557C74.0447 55.2557 72.8857 54.983 71.9141 54.4375C70.9482 53.8864 70.2038 53.108 69.6811 52.1023C69.1584 51.0909 68.897 49.8949 68.897 48.5142C68.897 47.1676 69.1584 45.9858 69.6811 44.9688C70.2038 43.9517 70.9396 43.1591 71.8885 42.5909C72.843 42.0227 73.9624 41.7386 75.2464 41.7386C76.1101 41.7386 76.9141 41.8778 77.6584 42.1562C78.4084 42.429 79.0618 42.8409 79.6186 43.392C80.1811 43.9432 80.6186 44.6364 80.9311 45.4716C81.2436 46.3011 81.3999 47.2727 81.3999 48.3864V49.3835H70.3459V47.1335H77.9822C77.9822 46.6108 77.8686 46.1477 77.6413 45.7443C77.4141 45.3409 77.0987 45.0256 76.6953 44.7983C76.2976 44.5653 75.8345 44.4489 75.3061 44.4489C74.755 44.4489 74.2663 44.5767 73.8402 44.8324C73.4197 45.0824 73.0902 45.4205 72.8516 45.8466C72.6129 46.267 72.4908 46.7358 72.4851 47.2528V49.392C72.4851 50.0398 72.6044 50.5994 72.843 51.071C73.0874 51.5426 73.4311 51.9062 73.8743 52.1619C74.3175 52.4176 74.843 52.5455 75.451 52.5455C75.8544 52.5455 76.2237 52.4886 76.5589 52.375C76.8942 52.2614 77.1811 52.0909 77.4197 51.8636C77.6584 51.6364 77.8402 51.358 77.9652 51.0284L81.3232 51.25C81.1527 52.0568 80.8033 52.7614 80.2749 53.3636C79.7521 53.9602 79.076 54.4261 78.2464 54.7614C77.4226 55.0909 76.4709 55.2557 75.3913 55.2557ZM99.2379 43.6562H95.505C95.4368 43.1733 95.2976 42.7443 95.0874 42.3693C94.8771 41.9886 94.6072 41.6648 94.2777 41.3977C93.9482 41.1307 93.5675 40.9261 93.1357 40.7841C92.7095 40.642 92.2464 40.571 91.7464 40.571C90.843 40.571 90.0561 40.7955 89.3857 41.2443C88.7152 41.6875 88.1953 42.3352 87.826 43.1875C87.4567 44.0341 87.272 45.0625 87.272 46.2727C87.272 47.517 87.4567 48.5625 87.826 49.4091C88.201 50.2557 88.7237 50.8949 89.3942 51.3267C90.0646 51.7585 90.8402 51.9744 91.7209 51.9744C92.2152 51.9744 92.6726 51.9091 93.093 51.7784C93.5192 51.6477 93.897 51.4574 94.2266 51.2074C94.5561 50.9517 94.8288 50.642 95.0447 50.2784C95.2663 49.9148 95.4197 49.5 95.505 49.0341L99.2379 49.0511C99.1413 49.8523 98.8999 50.625 98.5135 51.3693C98.1328 52.108 97.6186 52.7699 96.9709 53.3551C96.3288 53.9347 95.5618 54.3949 94.6697 54.7358C93.7834 55.071 92.7805 55.2386 91.6612 55.2386C90.1044 55.2386 88.7124 54.8864 87.4851 54.1818C86.2635 53.4773 85.2976 52.4574 84.5874 51.1222C83.8828 49.7869 83.5305 48.1705 83.5305 46.2727C83.5305 44.3693 83.8885 42.75 84.6044 41.4148C85.3203 40.0795 86.2919 39.0625 87.5192 38.3636C88.7464 37.6591 90.1271 37.3068 91.6612 37.3068C92.6726 37.3068 93.6101 37.4489 94.4737 37.733C95.343 38.017 96.1129 38.4318 96.7834 38.9773C97.4538 39.517 97.9993 40.179 98.4197 40.9631C98.8459 41.7472 99.1186 42.6449 99.2379 43.6562ZM105.549 55.2472C104.714 55.2472 103.969 55.1023 103.316 54.8125C102.663 54.517 102.146 54.0824 101.765 53.5085C101.39 52.929 101.202 52.2074 101.202 51.3438C101.202 50.6165 101.336 50.0057 101.603 49.5114C101.87 49.017 102.234 48.6193 102.694 48.3182C103.154 48.017 103.677 47.7898 104.262 47.6364C104.853 47.483 105.472 47.375 106.12 47.3125C106.881 47.233 107.495 47.1591 107.961 47.0909C108.427 47.017 108.765 46.9091 108.975 46.767C109.185 46.625 109.29 46.4148 109.29 46.1364V46.0852C109.29 45.5455 109.12 45.1278 108.779 44.8324C108.444 44.5369 107.967 44.3892 107.347 44.3892C106.694 44.3892 106.174 44.5341 105.788 44.8239C105.401 45.108 105.146 45.4659 105.021 45.8977L101.663 45.625C101.833 44.8295 102.168 44.142 102.668 43.5625C103.168 42.9773 103.813 42.5284 104.603 42.2159C105.398 41.8977 106.319 41.7386 107.364 41.7386C108.092 41.7386 108.788 41.8239 109.452 41.9943C110.123 42.1648 110.717 42.429 111.234 42.7869C111.756 43.1449 112.168 43.6051 112.469 44.1676C112.771 44.7244 112.921 45.392 112.921 46.1705V55H109.478V53.1847H109.376C109.165 53.5938 108.884 53.9545 108.532 54.267C108.18 54.5739 107.756 54.8153 107.262 54.9915C106.768 55.1619 106.197 55.2472 105.549 55.2472ZM106.589 52.7415C107.123 52.7415 107.594 52.6364 108.004 52.4261C108.413 52.2102 108.734 51.9205 108.967 51.5568C109.2 51.1932 109.316 50.7812 109.316 50.321V48.9318C109.202 49.0057 109.046 49.0739 108.847 49.1364C108.654 49.1932 108.435 49.2472 108.191 49.2983C107.947 49.3437 107.702 49.3864 107.458 49.4261C107.214 49.4602 106.992 49.4915 106.793 49.5199C106.367 49.5824 105.995 49.6818 105.677 49.8182C105.359 49.9545 105.112 50.1392 104.935 50.3722C104.759 50.5994 104.671 50.8835 104.671 51.2244C104.671 51.7188 104.85 52.0966 105.208 52.358C105.572 52.6136 106.032 52.7415 106.589 52.7415ZM122.701 41.9091V44.6364H114.817V41.9091H122.701ZM116.607 38.7727H120.238V50.9773C120.238 51.3125 120.289 51.5739 120.391 51.7614C120.494 51.9432 120.636 52.071 120.817 52.1449C121.005 52.2187 121.221 52.2557 121.465 52.2557C121.636 52.2557 121.806 52.2415 121.977 52.2131C122.147 52.179 122.278 52.1534 122.369 52.1364L122.94 54.8381C122.758 54.8949 122.502 54.9602 122.173 55.0341C121.843 55.1136 121.442 55.1619 120.971 55.179C120.096 55.2131 119.329 55.0966 118.67 54.8295C118.016 54.5625 117.508 54.1477 117.144 53.5852C116.781 53.0227 116.602 52.3125 116.607 51.4545V38.7727Z" fill="black"/>
<path d="M28.6235 47.2732L29.7282 46.8178C31.0827 46.4033 32.004 46.2542 32.4925 46.371C33.5749 46.6294 34.5112 47.8863 35.3012 50.1411C35.7776 51.5465 35.9282 52.6159 35.7534 53.3492C35.5785 54.0826 35.1969 54.637 34.6083 55.0129C34.0202 55.3891 33.3661 55.6942 32.6458 55.9283C31.926 56.1623 31.2362 56.3853 30.5767 56.5971C29.9175 56.8088 28.6307 56.9812 26.7163 57.1147C24.8023 57.2486 23.0159 57.1175 21.3574 56.7216C19.6993 56.3256 18.0756 55.7073 16.4866 54.8665C14.8979 54.0257 13.3272 52.8755 11.7745 51.4163C10.2223 49.9574 8.90768 48.3154 7.83087 46.4901C6.75387 44.6644 6.0299 42.48 5.65897 39.9369C5.28842 37.394 5.42796 34.7608 6.07778 32.0377C6.72799 29.3142 7.77171 26.9523 9.20875 24.952C10.6458 22.9519 12.2442 21.3963 14.0041 20.285C15.7638 19.1733 17.6685 18.3456 19.718 17.8016C23.5888 16.7336 27.2527 16.6121 30.709 17.4373C32.35 17.8293 33.9568 18.4803 35.5293 19.3905C37.1017 20.3009 38.2618 21.1219 39.0097 21.8536L40.091 22.8867C40.6282 23.4213 41.0419 23.8524 41.3327 24.1797C42.0654 25.13 42.3213 26.0679 42.1002 26.9931C41.8795 27.9185 41.2817 28.7996 40.3067 29.6361C38.4954 31.1967 37.0484 31.8477 35.966 31.5893C35.3374 31.4394 34.5387 30.8427 33.5699 29.7995C32.387 28.2628 30.5738 27.2025 28.13 26.6187C25.86 26.0769 23.4378 26.3295 20.8638 27.3761C19.6327 27.8936 18.5014 28.7673 17.4698 29.9973C16.4379 31.2269 15.7116 32.7233 15.2909 34.4867C14.8699 36.2498 14.8419 37.9128 15.2068 39.476C15.5715 41.0392 16.1995 42.3517 17.0907 43.4135C18.8531 45.4578 20.8866 46.7552 23.1914 47.3052C24.2735 47.5636 25.3277 47.6679 26.3543 47.6181C27.3813 47.5679 28.1378 47.4529 28.6235 47.2732Z" fill="black"/>
<mask id="mask0_67_13" style="mask-type:luminance" maskUnits="userSpaceOnUse" x="6" y="2" width="39" height="21">
<path d="M6.12805 2.94635H44.4906V22.47H6.12805V2.94635Z" fill="white"/>
</mask>
<g mask="url(#mask0_67_13)">
<path d="M43.1459 21.4161L44.4148 18.5716L42.0413 19.8411C45.4724 14.434 42.2529 2.98492 42.2529 2.98492C39.1507 5.19483 30.1028 13.7758 30.0324 13.7993C28.4827 13.4716 26.916 13.2992 25.3321 13.282C23.7494 13.3083 22.1826 13.4807 20.6319 13.7993C20.5615 13.7758 11.5136 5.19483 8.41144 2.98492C8.41144 2.98492 5.19173 14.434 8.62299 19.8411L6.22592 18.548L7.495 21.3928L6.15527 20.7344L6.97791 22.4505H9.68053C13.3231 18.2425 18.9635 15.4919 25.3087 15.3744C31.6539 15.4919 37.3176 18.2425 40.9602 22.4505H43.6628L44.4855 20.7344L43.1459 21.4161ZM15.7673 14.246L14.4511 14.2693L15.6027 15.4213H15.5793C14.6436 15.8604 13.741 16.3592 12.8716 16.9181C12.0021 17.4769 11.1734 18.0907 10.3856 18.7596C10.3385 18.7831 10.315 18.8302 10.2681 18.8538C8.4819 15.9386 8.90499 10.2259 9.58653 6.44078C11.5841 8.13358 13.9811 10.3435 16.0493 12.2947L13.1351 11.1428L15.7673 14.246ZM40.3493 18.8538C40.3258 18.8302 40.2787 18.8067 40.2318 18.7596C39.4463 18.0905 38.6188 17.4784 37.7491 16.9234C36.8793 16.3681 35.9757 15.8753 35.0381 15.4448H35.0145L36.1661 14.2929L34.8501 14.2693L37.4352 11.1661L34.521 12.3181C36.5892 10.3668 38.9862 8.15713 40.9838 6.46433C41.7124 10.2259 42.1353 15.915 40.3493 18.8538Z" fill="black"/>
</g>
</svg>
