<svg width="156" height="82" viewBox="0 0 156 82" fill="none" xmlns="http://www.w3.org/2000/svg">
<path d="M57.1746 69.6538C55.506 69.6538 54.0631 69.2993 52.8457 68.5904C51.6354 67.8742 50.7009 66.8788 50.0421 65.6042C49.3833 64.3223 49.0538 62.8364 49.0538 61.1463C49.0538 59.442 49.3833 57.9525 50.0421 56.6778C50.7009 55.3959 51.6354 54.4005 52.8457 53.6916C54.0631 52.9755 55.506 52.6174 57.1746 52.6174C58.8431 52.6174 60.2825 52.9755 61.4928 53.6916C62.7102 54.4005 63.6483 55.3959 64.3071 56.6778C64.9659 57.9525 65.2953 59.442 65.2953 61.1463C65.2953 62.8364 64.9659 64.3223 64.3071 65.6042C63.6483 66.8788 62.7102 67.8742 61.4928 68.5904C60.2825 69.2993 58.8431 69.6538 57.1746 69.6538ZM57.1961 66.109C57.9552 66.109 58.5889 65.8942 59.0974 65.4645C59.6058 65.0277 59.9889 64.4333 60.2467 63.6814C60.5117 62.9295 60.6442 62.0737 60.6442 61.1141C60.6442 60.1545 60.5117 59.2988 60.2467 58.5469C59.9889 57.7949 59.6058 57.2006 59.0974 56.7637C58.5889 56.3269 57.9552 56.1085 57.1961 56.1085C56.4298 56.1085 55.7853 56.3269 55.2626 56.7637C54.747 57.2006 54.3567 57.7949 54.0917 58.5469C53.8339 59.2988 53.705 60.1545 53.705 61.1141C53.705 62.0737 53.8339 62.9295 54.0917 63.6814C54.3567 64.4333 54.747 65.0277 55.2626 65.4645C55.7853 65.8942 56.4298 66.109 57.1961 66.109ZM74.3506 69.6001C73.0974 69.6001 71.9624 69.2778 70.9455 68.6333C69.9358 67.9817 69.1337 67.0257 68.5393 65.7653C67.9521 64.4978 67.6585 62.9438 67.6585 61.1034C67.6585 59.2128 67.9629 57.641 68.5716 56.3878C69.1803 55.1274 69.9895 54.1857 70.9992 53.5627C72.0161 52.9325 73.1296 52.6174 74.3399 52.6174C75.2637 52.6174 76.0335 52.775 76.6493 53.0901C77.2724 53.398 77.7736 53.7847 78.1532 54.2502C78.5399 54.7085 78.8335 55.1596 79.034 55.6036H79.1736V47.3325H83.7389V69.3315H79.2274V66.6891H79.034C78.8192 67.1474 78.5148 67.6021 78.121 68.0533C77.7343 68.4973 77.2294 68.8661 76.6064 69.1597C75.9905 69.4533 75.2386 69.6001 74.3506 69.6001ZM75.8007 65.9586C76.5383 65.9586 77.1614 65.7581 77.6698 65.3571C78.1854 64.9489 78.5793 64.3796 78.8514 63.6492C79.1307 62.9187 79.2703 62.063 79.2703 61.0819C79.2703 60.1008 79.1343 59.2486 78.8621 58.5254C78.59 57.8021 78.1961 57.2435 77.6805 56.8497C77.1649 56.4558 76.5383 56.2589 75.8007 56.2589C75.0488 56.2589 74.4151 56.463 73.8995 56.8711C73.3839 57.2793 72.9936 57.8451 72.7286 58.5683C72.4636 59.2916 72.3312 60.1295 72.3312 61.0819C72.3312 62.0415 72.4636 62.8901 72.7286 63.6277C73.0007 64.3581 73.391 64.931 73.8995 65.3464C74.4151 65.7545 75.0488 65.9586 75.8007 65.9586ZM95.0204 69.6538C93.3232 69.6538 91.8623 69.3101 90.6377 68.6226C89.4204 67.928 88.4822 66.9469 87.8234 65.6794C87.1646 64.4047 86.8352 62.8972 86.8352 61.1571C86.8352 59.4599 87.1646 57.9704 87.8234 56.6885C88.4822 55.4067 89.4096 54.4077 90.6055 53.6916C91.8086 52.9755 93.2193 52.6174 94.8378 52.6174C95.9263 52.6174 96.9396 52.7929 97.8777 53.1438C98.8229 53.4875 99.6465 54.0067 100.348 54.7013C101.057 55.3959 101.609 56.2696 102.002 57.3223C102.396 58.3678 102.593 59.5924 102.593 60.996V62.2527H88.6613V59.4169H98.2859C98.2859 58.7581 98.1426 58.1745 97.8562 57.666C97.5697 57.1576 97.1723 56.7601 96.6639 56.4737C96.1626 56.1801 95.5789 56.0333 94.913 56.0333C94.2183 56.0333 93.6025 56.1944 93.0654 56.5167C92.5355 56.8318 92.1201 57.2578 91.8193 57.7949C91.5186 58.3249 91.3646 58.9156 91.3574 59.5673V62.2635C91.3574 63.0799 91.5078 63.7852 91.8086 64.3796C92.1165 64.974 92.5498 65.4323 93.1083 65.7545C93.6669 66.0768 94.3293 66.2379 95.0956 66.2379C95.604 66.2379 96.0695 66.1663 96.492 66.0231C96.9145 65.8799 97.2761 65.665 97.5769 65.3786C97.8777 65.0921 98.1068 64.7412 98.2644 64.3259L102.497 64.6052C102.282 65.6221 101.841 66.51 101.175 67.2691C100.517 68.0211 99.6644 68.6083 98.6189 69.0308C97.5805 69.4461 96.381 69.6538 95.0204 69.6538ZM125.076 55.0343H120.371C120.285 54.4256 120.109 53.8849 119.845 53.4123C119.58 52.9325 119.239 52.5243 118.824 52.1877C118.409 51.8512 117.929 51.5934 117.385 51.4143C116.848 51.2353 116.264 51.1458 115.634 51.1458C114.495 51.1458 113.503 51.4287 112.658 51.9944C111.813 52.553 111.158 53.3693 110.693 54.4435C110.227 55.5105 109.994 56.8067 109.994 58.332C109.994 59.9003 110.227 61.218 110.693 62.285C111.165 63.352 111.824 64.1576 112.669 64.7019C113.514 65.2461 114.492 65.5182 115.602 65.5182C116.225 65.5182 116.801 65.4359 117.331 65.2712C117.868 65.1065 118.344 64.8666 118.76 64.5515C119.175 64.2292 119.519 63.8389 119.791 63.3806C120.07 62.9223 120.263 62.3995 120.371 61.8123L125.076 61.8338C124.954 62.8435 124.65 63.8175 124.163 64.7556C123.683 65.6865 123.035 66.5208 122.218 67.2584C121.409 67.9888 120.442 68.5689 119.318 68.9985C118.201 69.4211 116.937 69.6323 115.526 69.6323C113.564 69.6323 111.81 69.1883 110.263 68.3003C108.723 67.4124 107.506 66.1269 106.611 64.4441C105.723 62.7612 105.279 60.7238 105.279 58.332C105.279 55.933 105.73 53.8921 106.632 52.2092C107.534 50.5264 108.759 49.2445 110.306 48.3637C111.853 47.4757 113.593 47.0317 115.526 47.0317C116.801 47.0317 117.983 47.2107 119.071 47.5688C120.167 47.9269 121.137 48.4496 121.982 49.1371C122.827 49.8174 123.515 50.6517 124.045 51.6399C124.582 52.6282 124.925 53.7596 125.076 55.0343ZM133.03 69.6431C131.977 69.6431 131.039 69.4604 130.216 69.0952C129.392 68.7228 128.74 68.175 128.261 67.4517C127.788 66.7213 127.552 65.8118 127.552 64.7233C127.552 63.8067 127.72 63.0369 128.057 62.4139C128.393 61.7909 128.851 61.2896 129.431 60.91C130.012 60.5305 130.67 60.244 131.408 60.0507C132.153 59.8573 132.933 59.7213 133.75 59.6425C134.709 59.5423 135.483 59.4492 136.07 59.3632C136.657 59.2701 137.083 59.1341 137.348 58.955C137.613 58.776 137.746 58.511 137.746 58.1601V58.0957C137.746 57.4154 137.531 56.889 137.101 56.5167C136.679 56.1443 136.077 55.9581 135.296 55.9581C134.473 55.9581 133.818 56.1407 133.331 56.5059C132.844 56.864 132.522 57.3151 132.364 57.8594L128.132 57.5156C128.347 56.5131 128.769 55.6466 129.399 54.9161C130.029 54.1785 130.842 53.6128 131.838 53.219C132.84 52.8179 134 52.6174 135.318 52.6174C136.235 52.6174 137.112 52.7248 137.95 52.9397C138.795 53.1545 139.543 53.4875 140.195 53.9386C140.854 54.3898 141.373 54.9699 141.752 55.6788C142.132 56.3806 142.322 57.222 142.322 58.2031V69.3315H137.982V67.0436H137.853C137.588 67.5592 137.234 68.0139 136.79 68.4078C136.346 68.7945 135.812 69.0988 135.189 69.3208C134.566 69.5356 133.846 69.6431 133.03 69.6431ZM134.34 66.485C135.014 66.485 135.608 66.3525 136.124 66.0875C136.639 65.8154 137.044 65.4502 137.337 64.9919C137.631 64.5336 137.778 64.0144 137.778 63.4343V61.6834C137.635 61.7765 137.438 61.8625 137.187 61.9412C136.944 62.0128 136.668 62.0809 136.36 62.1453C136.052 62.2026 135.744 62.2563 135.436 62.3065C135.128 62.3494 134.849 62.3888 134.598 62.4246C134.061 62.5034 133.592 62.6287 133.191 62.8006C132.79 62.9724 132.479 63.2052 132.257 63.4988C132.035 63.7852 131.924 64.1433 131.924 64.573C131.924 65.196 132.149 65.6722 132.6 66.0016C133.059 66.3239 133.639 66.485 134.34 66.485ZM154.648 52.8323V56.2696H144.712V52.8323H154.648ZM146.967 48.8793H151.543V64.2614C151.543 64.684 151.608 65.0134 151.737 65.2497C151.866 65.4788 152.045 65.64 152.274 65.7331C152.51 65.8262 152.782 65.8727 153.09 65.8727C153.305 65.8727 153.52 65.8548 153.735 65.819C153.949 65.776 154.114 65.7438 154.229 65.7223L154.948 69.1275C154.719 69.1991 154.397 69.2814 153.982 69.3745C153.566 69.4748 153.061 69.5356 152.467 69.5571C151.364 69.6001 150.398 69.4533 149.567 69.1167C148.743 68.7801 148.102 68.2574 147.644 67.5484C147.186 66.8395 146.96 65.9443 146.967 64.863V48.8793Z" fill="white"/>
<path d="M36.0777 59.5827L37.47 59.0087C39.1773 58.4862 40.3385 58.2983 40.9542 58.4455C42.3185 58.7713 43.4986 60.3554 44.4943 63.1974C45.0948 64.9687 45.2846 66.3166 45.0644 67.2409C44.8438 68.1651 44.3628 68.864 43.621 69.3377C42.8798 69.8118 42.0553 70.1964 41.1475 70.4915C40.2401 70.7864 39.3708 71.0675 38.5395 71.3344C37.7087 71.6012 36.0868 71.8186 33.6738 71.9869C31.2613 72.1556 29.0097 71.9903 26.9193 71.4914C24.8294 70.9922 22.7829 70.2129 20.78 69.1532C18.7777 68.0935 16.7979 66.6438 14.8409 64.8046C12.8844 62.9658 11.2275 60.8963 9.87025 58.5956C8.51278 56.2945 7.60028 53.5413 7.13274 50.336C6.6657 47.131 6.84158 43.8121 7.66062 40.3799C8.48016 36.9473 9.79568 33.9704 11.6069 31.4492C13.4182 28.9283 15.4328 26.9676 17.651 25.567C19.869 24.1659 22.2697 23.1226 24.8529 22.437C29.7319 21.0908 34.3498 20.9378 38.7063 21.9778C40.7746 22.4718 42.7998 23.2924 44.7818 24.4396C46.7638 25.5871 48.226 26.6218 49.1687 27.5441L50.5315 28.8461C51.2085 29.5199 51.73 30.0633 52.0965 30.4759C53.0201 31.6736 53.3426 32.8557 53.064 34.0219C52.7858 35.1883 52.0323 36.2987 50.8033 37.353C48.5204 39.32 46.6966 40.1405 45.3322 39.8148C44.5399 39.6259 43.5332 38.8738 42.3121 37.559C40.8212 35.6222 38.5358 34.2858 35.4556 33.5499C32.5945 32.867 29.5415 33.1854 26.2972 34.5046C24.7455 35.1569 23.3196 36.258 22.0193 37.8083C20.7187 39.358 19.8033 41.2441 19.2729 43.4668C18.7424 45.6889 18.707 47.7849 19.167 49.7552C19.6267 51.7254 20.4182 53.3797 21.5414 54.718C23.7628 57.2946 26.3259 58.9297 29.231 59.6229C30.5948 59.9487 31.9236 60.0802 33.2175 60.0174C34.512 59.9541 35.4654 59.8091 36.0777 59.5827Z" fill="white"/>
<mask id="mask0_11_69" style="mask-type:luminance" maskUnits="userSpaceOnUse" x="7" y="3" width="50" height="26">
<path d="M7.72388 3.7135H56.0767V28.3209H7.72388V3.7135Z" fill="white"/>
</mask>
<g mask="url(#mask0_11_69)">
<path d="M54.382 26.9928L55.9813 23.4075L52.9897 25.0076C57.3143 18.1926 53.2563 3.76227 53.2563 3.76227C49.3463 6.54761 37.9422 17.363 37.8534 17.3926C35.9002 16.9796 33.9255 16.7622 31.9291 16.7406C29.9343 16.7738 27.9594 16.9911 26.0049 17.3926C25.9161 17.363 14.512 6.54761 10.602 3.76227C10.602 3.76227 6.54384 18.1926 10.8687 25.0076L7.84734 23.3779L9.44692 26.9634L7.7583 26.1335L8.79517 28.2965H12.2016C16.7928 22.9928 23.902 19.526 31.8996 19.3778C39.8973 19.526 47.0359 22.9928 51.6271 28.2965H55.0335L56.0704 26.1335L54.382 26.9928ZM19.8735 17.9556L18.2145 17.985L19.666 19.4369H19.6365C18.4571 19.9903 17.3195 20.619 16.2237 21.3235C15.1277 22.0278 14.0833 22.8014 13.0903 23.6445C13.0309 23.6742 13.0013 23.7335 12.9421 23.7632C10.6908 20.0889 11.2241 12.8888 12.0831 8.11799C14.6008 10.2516 17.6222 13.0369 20.2289 15.4963L16.5558 14.0443L19.8735 17.9556ZM50.8571 23.7632C50.8274 23.7335 50.768 23.7039 50.7089 23.6445C49.7189 22.8012 48.6759 22.0297 47.5797 21.3301C46.4835 20.6303 45.3445 20.0092 44.1627 19.4666H44.133L45.5844 18.0147L43.9258 17.985L47.184 14.0738L43.511 15.5257C46.1177 13.0664 49.139 10.2813 51.6568 8.14767C52.5751 12.8888 53.1082 20.0593 50.8571 23.7632Z" fill="white"/>
</g>
</svg>
