<svg width="30" height="31" viewBox="0 0 30 31" xmlns="http://www.w3.org/2000/svg" fill='black'>
<path d="M8.06896 0.777555C5.44288 2.4647 3.66771 5.44288 3.66771 8.84652C3.66771 12.2502 5.44288 15.2283 8.11298 16.9155C3.60903 16.9155 0 13.3065 0 8.84652C0 6.7065 0.850121 4.65412 2.36335 3.1409C3.87657 1.62768 5.92894 0.777555 8.06896 0.777555ZM25.0431 2.97818L27.1411 5.07611L4.29856 27.9186L2.20063 25.8207L25.0431 2.97818ZM15.9766 6.5432L13.8053 5.17881L11.6927 6.64589L12.3088 4.15185L10.2696 2.59674L12.837 2.42069L13.6879 0L14.6708 2.39135L17.2089 2.43536L15.2283 4.09317L15.9766 6.5432ZM11.1352 11.8394L9.43335 10.7684L7.79022 11.9127L8.28903 9.97617L6.6899 8.75849L8.68514 8.62646L9.34533 6.73392L10.0935 8.59711L12.0888 8.64113L10.5483 9.91749L11.1352 11.8394ZM24.9404 17.649C24.9404 19.789 24.0903 21.8414 22.5771 23.3546C21.0639 24.8679 19.0115 25.718 16.8715 25.718C15.0816 25.718 13.4238 25.1312 12.0888 24.1482L23.3707 12.8663C24.3536 14.2014 24.9404 15.8592 24.9404 17.649ZM18.4853 27.3024L22.5491 25.6153L22.197 30.53L18.4853 27.3024ZM24.8377 23.3413L26.5249 19.2775L29.7525 23.0039L24.8377 23.3413ZM26.5249 16.0646L24.8524 11.9861L29.7525 12.3382L26.5249 16.0646ZM11.1939 25.6153L15.2577 27.3024L11.546 30.5154L11.1939 25.6153Z" />
</svg>
